<svg version="1.1" xmlns="http://www.w3.org/2000/svg" xmlns:xlink="http://www.w3.org/1999/xlink" width="307.50751" height="307.50751" viewBox="0,0,307.50751,307.50751"><g transform="translate(-86.24624,-26.24624)"><g data-paper-data="{&quot;isPaintingLayer&quot;:true}" fill-rule="nonzero" stroke="none" stroke-linecap="butt" stroke-linejoin="miter" stroke-miterlimit="10" stroke-dasharray="" stroke-dashoffset="0" style="mix-blend-mode: normal"><path d="M393.75376,304.31287c0.00054,16.25921 -13.17971,29.44035 -29.43892,29.44089h-248.62968c-16.25921,-0.00054 -29.43946,-13.18168 -29.43891,-29.44089v-248.62671c-0.00026,-7.80786 3.10121,-15.29601 8.62211,-20.81709c5.52089,-5.52108 13.00895,-8.62281 20.81681,-8.62281h248.62968c7.80786,0 15.29591,3.10173 20.8168,8.62281c5.52089,5.52108 8.62237,13.00924 8.62211,20.81709zM115.91087,50.88627c-3.06522,0 -6.01019,2.12692 -6.00822,5.19214v106.65817h69.70564c3.15895,-0.01757 6.19473,1.22422 8.43578,3.45065c2.24105,2.22644 3.50267,5.25402 3.50576,8.41303c0.00009,0.62958 -0.05331,1.25803 -0.15966,1.87856c1.04897,25.64407 22.41057,45.74225 48.07093,45.2278c25.66036,-0.51445 46.19925,-21.45267 46.21954,-47.11818c0.00335,-3.1575 1.26515,-6.18344 3.50606,-8.40788c2.24091,-2.22445 5.27607,-3.46391 8.43351,-3.44397h72.48109v-106.65817c-0.02713,-1.44073 -0.63965,-2.80832 -1.69653,-3.78785c-1.05687,-0.97953 -2.46699,-1.48654 -3.90563,-1.40429h-248.58631zM368.43039,308.54684c1.05112,-1.02078 1.65119,-2.41896 1.66697,-3.88408v-118.27175h-61.54487c-5.82459,34.13731 -35.41109,59.10327 -70.04173,59.10327c-34.63064,0 -64.21714,-24.96596 -70.04173,-59.10327h-58.57032v118.27372c0,3.06916 2.94694,5.43461 6.01216,5.43461h248.58828c1.46495,0.02715 2.88012,-0.53172 3.93124,-1.55249z" fill="#000000" stroke-width="1"/><path d="M364.54392,310.12158l-248.67781,0.00006c-3.06522,0 -6.01329,-2.36786 -6.01329,-5.43702l0.00072,-118.31508l58.57766,-0.01124c5.82459,34.13731 35.42513,59.09199 70.05577,59.09199c34.63064,0 64.27805,-24.95546 70.10263,-59.09277l61.5529,0.01203l0.00072,118.31311c-0.01578,1.46513 -0.61646,2.86467 -1.66758,3.88544c-1.05112,1.02078 -2.46677,1.58063 -3.93173,1.55349z" data-paper-data="{&quot;noHover&quot;:false,&quot;origItem&quot;:[&quot;Path&quot;,{&quot;applyMatrix&quot;:true,&quot;segments&quot;:[[[368.43039,308.54684],[-1.05112,1.02078],[1.05112,-1.02078]],[[370.09736,304.66276],[-0.01578,1.46513],[0,0]],[370.09736,186.39101],[[308.55249,186.39101],[0,0],[-5.82459,34.13731]],[[238.51076,245.49427],[34.63064,0],[-34.63064,0]],[[168.46903,186.39101],[5.82459,34.13731],[0,0]],[109.8987,186.39101],[[109.8987,304.66472],[0,0],[0,3.06916]],[[115.91087,310.09933],[-3.06522,0],[0,0]],[[364.49915,310.09933],[0,0],[1.46495,0.02715]]],&quot;closed&quot;:true,&quot;fillColor&quot;:[0,0,0,1]}]}" fill="#ff0000" stroke-width="0.5"/><path d="M115.87165,50.85792l248.66873,0.00006c1.43864,-0.08225 2.84937,0.42568 3.90624,1.40521c1.05687,0.97953 1.67012,2.34825 1.69724,3.78898l0.00644,106.69437l-72.48465,0.0109c-3.15744,-0.01994 -6.19531,1.22463 -8.43622,3.44908c-2.24091,2.22445 -3.50713,5.25654 -3.51047,8.41404c-0.02029,25.66551 -20.59781,46.62161 -46.25817,47.13606c-25.66036,0.51445 -47.06019,-19.60187 -48.10916,-45.24594c0.10635,-0.62053 0.15907,-1.24982 0.15898,-1.8794c-0.0031,-3.15901 -1.26883,-6.19267 -3.50988,-8.41911c-2.24105,-2.22644 -5.27929,-3.4731 -8.43824,-3.45553l-69.70884,-0.01009l0.00644,-106.69437c-0.00197,-3.06522 2.94438,-5.19425 6.0096,-5.19425z" data-paper-data="{&quot;noHover&quot;:false,&quot;origItem&quot;:[&quot;Path&quot;,{&quot;applyMatrix&quot;:true,&quot;segments&quot;:[[[115.91087,50.88627],[0,0],[-3.06522,0]],[[109.90264,56.07842],[-0.00197,-3.06522],[0,0]],[109.90264,162.73658],[[179.60829,162.73658],[0,0],[3.15895,-0.01757]],[[188.04407,166.18723],[-2.24105,-2.22644],[2.24105,2.22644]],[[191.54983,174.60026],[-0.0031,-3.15901],[0.00009,0.62958]],[[191.39016,176.47882],[0.10635,-0.62053],[1.04897,25.64407]],[[239.4611,221.70662],[-25.66036,0.51445],[25.66036,-0.51445]],[[285.68064,174.58844],[-0.02029,25.66551],[0.00335,-3.1575]],[[289.1867,166.18055],[-2.24091,2.22445],[2.24091,-2.22445]],[[297.62021,162.73658],[-3.15744,-0.01994],[0,0]],[370.1013,162.73658],[[370.1013,56.07842],[0,0],[-0.02713,-1.44073]],[[368.40478,52.29057],[1.05687,0.97953],[-1.05687,-0.97953]],[[364.49915,50.88627],[1.43864,-0.08225],[0,0]],[115.91284,50.88627]],&quot;closed&quot;:true,&quot;fillColor&quot;:[0,0,0,1]}]}" fill="#ffd184" stroke-width="0.5"/></g></g></svg>