<svg version="1.1" xmlns="http://www.w3.org/2000/svg" xmlns:xlink="http://www.w3.org/1999/xlink" width="91.001" height="54.672" viewBox="0,0,91.001,54.672"><g transform="translate(-194.4995,-152.664)"><g data-paper-data="{&quot;isPaintingLayer&quot;:true}" fill-rule="nonzero" stroke="none" stroke-width="1" stroke-linejoin="miter" stroke-miterlimit="10" stroke-dasharray="" stroke-dashoffset="0" style="mix-blend-mode: normal"><path d="M285.5005,198.731c0,4.752 -3.854,8.605 -8.605,8.605h-73.792c-4.752,0 -8.604,-3.854 -8.604,-8.605v-37.463c0,-4.752 3.852,-8.604 8.604,-8.604h73.791c4.754,0 8.605,3.852 8.605,8.604v37.463z" fill="#0096ff" stroke-linecap="butt"/><path d="M204.52649,194.2481v-27.28001h3.8097v11.79154h7.00727v-11.79154h3.80164v27.28001h-3.80164v-12.76611h-7.00727v12.76611zM230.39329,194.55417c-1.84176,0 -3.31301,-0.35976 -4.41377,-1.07928c-1.10076,-0.71952 -1.8874,-1.74511 -2.35992,-3.07675c-0.46715,-1.33702 -0.70072,-2.90493 -0.70072,-4.70373v-10.34176c0,-1.79343 0.23894,-3.33449 0.71684,-4.62318c0.48326,-1.29406 1.2699,-2.28206 2.35992,-2.96399c1.09002,-0.6873 2.5559,-1.03095 4.39766,-1.03095c1.84176,0 3.29959,0.34902 4.3735,1.04706c1.07928,0.69267 1.86055,1.68067 2.34381,2.96399c0.48326,1.27796 0.72489,2.81364 0.72489,4.60708v10.37397c0,1.77732 -0.24163,3.32912 -0.72489,4.6554c-0.48326,1.32091 -1.26453,2.34649 -2.34381,3.07675c-1.07391,0.73026 -2.53174,1.09539 -4.3735,1.09539zM230.39329,191.55796c1.00947,0 1.77195,-0.20673 2.28743,-0.62018c0.51548,-0.41883 0.86182,-1.00411 1.03901,-1.75584c0.18257,-0.75174 0.27385,-1.63235 0.27385,-2.64182v-11.96067c0,-1.00947 -0.09128,-1.87934 -0.27385,-2.6096c-0.1772,-0.73026 -0.52353,-1.29138 -1.03901,-1.68335c-0.51548,-0.39198 -1.27796,-0.58796 -2.28743,-0.58796c-1.00947,0 -1.78,0.19599 -2.31159,0.58797c-0.52621,0.39198 -0.8806,0.9531 -1.06317,1.68336c-0.1772,0.73026 -0.26579,1.60013 -0.26579,2.6096v11.96068c0,1.00947 0.0886,1.89008 0.2658,2.64182c0.18257,0.75174 0.53696,1.33702 1.06317,1.75584c0.53159,0.41345 1.30212,0.62019 2.31159,0.62019zM241.50471,194.2481l0.50743,-27.28001h3.73721l4.81649,22.12524l4.84871,-22.12524h3.70499l0.49937,27.28001h-3.06064l-0.30606,-19.79754l-4.60708,19.79754h-2.15856l-4.58291,-19.79754l-0.29801,19.79754zM263.79473,194.2481v-27.28001h10.57532v2.83512h-6.76564v9.02085h5.485v2.6982h-5.48499v9.99542h6.83813v2.73042z" fill="#5abaff" stroke-linecap="square"/><path d="M205.55744,192.95942v-27.28001h3.8097v11.79154h7.00727v-11.79154h3.80164v27.28001h-3.80164v-12.76611h-7.00727v12.76611zM231.42425,193.26548c-1.84176,0 -3.31301,-0.35976 -4.41377,-1.07928c-1.10076,-0.71952 -1.8874,-1.74511 -2.35992,-3.07675c-0.46715,-1.33702 -0.70072,-2.90493 -0.70072,-4.70373v-10.34176c0,-1.79343 0.23894,-3.33449 0.71684,-4.62318c0.48326,-1.29406 1.2699,-2.28206 2.35992,-2.96399c1.09002,-0.6873 2.5559,-1.03095 4.39766,-1.03095c1.84176,0 3.29959,0.34902 4.3735,1.04706c1.07928,0.69267 1.86055,1.68067 2.34381,2.96399c0.48326,1.27796 0.72489,2.81364 0.72489,4.60708v10.37397c0,1.77732 -0.24163,3.32912 -0.72489,4.6554c-0.48326,1.32091 -1.26453,2.34649 -2.34381,3.07675c-1.07391,0.73026 -2.53174,1.09539 -4.3735,1.09539zM231.42425,190.26927c1.00947,0 1.77195,-0.20673 2.28743,-0.62018c0.51548,-0.41883 0.86182,-1.00411 1.03901,-1.75584c0.18257,-0.75174 0.27385,-1.63235 0.27385,-2.64182v-11.96067c0,-1.00947 -0.09128,-1.87934 -0.27385,-2.6096c-0.1772,-0.73026 -0.52353,-1.29138 -1.03901,-1.68335c-0.51548,-0.39198 -1.27796,-0.58796 -2.28743,-0.58796c-1.00947,0 -1.78,0.19599 -2.31159,0.58797c-0.52621,0.39198 -0.8806,0.9531 -1.06317,1.68336c-0.1772,0.73026 -0.26579,1.60013 -0.26579,2.6096v11.96068c0,1.00947 0.0886,1.89008 0.2658,2.64182c0.18257,0.75174 0.53696,1.33702 1.06317,1.75584c0.53159,0.41345 1.30212,0.62019 2.31159,0.62019zM242.53566,192.95942l0.50743,-27.28001h3.73721l4.81649,22.12524l4.84871,-22.12524h3.70499l0.49937,27.28001h-3.06064l-0.30606,-19.79754l-4.60708,19.79754h-2.15856l-4.58291,-19.79754l-0.29801,19.79754zM264.82569,192.95942v-27.28001h10.57532v2.83512h-6.76564v9.02085h5.485v2.6982h-5.48499v9.99542h6.83813v2.73042z" fill="#ffffff" stroke-linecap="square"/></g></g></svg>
