<svg version="1.1" xmlns="http://www.w3.org/2000/svg" xmlns:xlink="http://www.w3.org/1999/xlink" width="397.27409" height="122.5358" viewBox="0,0,397.27409,122.5358"><g transform="translate(-41.36295,-118.2321)"><g data-paper-data="{&quot;isPaintingLayer&quot;:true}" fill-rule="nonzero" stroke="none" stroke-width="1" stroke-linecap="butt" stroke-linejoin="miter" stroke-miterlimit="10" stroke-dasharray="" stroke-dashoffset="0" style="mix-blend-mode: normal"><path d="M100.21032,209.03942v-76.67187h19.40625c6.69792,0 11.90625,0.83854 15.625,2.51563c3.71875,1.66666 6.33334,4.28646 7.84375,7.85938c1.52084,3.5625 2.28125,8.18229 2.28125,13.85938v27.82813c0,5.73959 -0.76041,10.42709 -2.28125,14.0625c-1.51041,3.625 -4.10937,6.29166 -7.79687,8c-3.6875,1.69791 -8.84896,2.54688 -15.48437,2.54688zM117.16344,197.30504h2.64063c2.59375,0 4.45833,-0.38021 5.59375,-1.14062c1.13541,-0.76041 1.84375,-1.89584 2.125,-3.40625c0.28125,-1.51041 0.42188,-3.40104 0.42188,-5.67187v-33.42187c0,-2.27084 -0.17187,-4.09896 -0.51562,-5.48437c-0.34375,-1.39584 -1.08334,-2.40625 -2.21875,-3.03125c-1.13541,-0.63541 -2.96875,-0.95312 -5.5,-0.95312h-2.54687z" fill="#004cad"/><path d="M374.80792,209.03942v-76.67187h21.10938c5.17708,0 9.65625,0.56771 13.4375,1.70313c3.79167,1.13541 6.74479,3.17188 8.85938,6.10938c2.11458,2.9375 3.17188,7.08334 3.17188,12.4375c0,3.15625 -0.25521,5.96875 -0.76562,8.4375c-0.5,2.45834 -1.42708,4.58854 -2.78125,6.39063c-1.35417,1.79166 -3.29687,3.28646 -5.82812,4.48438l10.51563,37.10938h-17.51562l-8.42187,-34.35937h-4.82812v34.35938zM391.76107,164.93004h4.73438c2.39583,0 4.25521,-0.42709 5.57813,-1.28125c1.32292,-0.85416 2.25,-2.08334 2.78125,-3.6875c0.54167,-1.61459 0.8125,-3.55729 0.8125,-5.82812c0,-3.28125 -0.59896,-5.83334 -1.79687,-7.65625c-1.19792,-1.83334 -3.40625,-2.75 -6.625,-2.75h-5.48437z" fill="#004cad"/><path d="M224.39921,209.03942v-76.67187h25.75c4.60416,0 8.39063,0.86979 11.35938,2.60938c2.96875,1.72916 5.17708,4.25 6.625,7.5625c1.45833,3.3125 2.1875,7.33854 2.1875,12.07813c0,5.92709 -0.97917,10.45313 -2.9375,13.57813c-1.95833,3.125 -4.60937,5.28646 -7.95312,6.48438c-3.34375,1.19791 -7.09896,1.79688 -11.26563,1.79688h-6.8125v32.5625zM241.35234,164.64879h5.67188c2.08334,0 3.66146,-0.38021 4.73438,-1.14062c1.07291,-0.76041 1.78125,-1.89584 2.125,-3.40625c0.35417,-1.51041 0.53125,-3.4375 0.53125,-5.78125c0,-1.94791 -0.14583,-3.66146 -0.4375,-5.14062c-0.28125,-1.48959 -0.95834,-2.67709 -2.03125,-3.5625c-1.07291,-0.88541 -2.74479,-1.32812 -5.01562,-1.32812h-5.57812z" fill="#004cad"/><path d="M278.44792,132.36754h25.74997c4.60417,0 8.39063,0.86979 11.35938,2.60938c2.96875,1.72916 5.17708,4.25 6.625,7.5625c1.45833,3.3125 2.1875,7.33854 2.1875,12.07813c0,5.92709 -0.97917,10.45313 -2.9375,13.57813c-1.95833,3.125 -4.60937,5.28646 -7.95312,6.48438c-3.34375,1.19791 -7.09896,1.79688 -11.26562,1.79688h-6.8125v32.5625h-16.9531zM295.40101,164.64879h5.67188c2.08333,0 3.66146,-0.38021 4.73438,-1.14062c1.07292,-0.76041 1.78125,-1.89584 2.125,-3.40625c0.35417,-1.51041 0.53125,-3.4375 0.53125,-5.78125c0,-1.94791 -0.14583,-3.66146 -0.4375,-5.14062c-0.28125,-1.48959 -0.95833,-2.67709 -2.03125,-3.5625c-1.07292,-0.88541 -2.74479,-1.32812 -5.01562,-1.32812h-5.57812z" fill="#004cad"/><path d="M45.64674,209.23942l14.875,-41.26562c0,0 -5.09291,-22.1327 -15.20312,-42.80625c-1.82565,-3.73311 -3.95566,-6.71394 -3.95566,-6.71394c0,0 3.19432,-0.54394 5.04079,0.07291c0.21527,0.07191 0.83756,0.94693 1.01857,1.04831c1.86771,1.04599 1.23808,2.98524 3.77977,4.99784c5.35077,4.23694 5.53408,3.80138 11.51653,11.59488c2.70455,3.52329 8.02187,17.13438 8.02187,17.13438l6.8125,-20.73437h14.10938l-13.45312,39.84375l14.96875,36.82813h-15.90625l-9.375,-22.90625l-8.23437,22.90625z" fill="#004cad"/><path d="M332.49659,209.03942v-76.67187h34.46875v11.54688h-17.51562v19.03125h13.34375v11.73438h-13.34375v22.90625h17.70313v11.45313z" fill="#004cad"/><path d="M151.99965,209.03942v-10.21875l18.73438,-55h-17.89062v-11.45312h34.54688v9.5625l-19.01562,55.65625h19.20313v11.45313z" fill="#004cad"/><path d="M196.01705,209.03942v-76.67187h16.9375v76.67188z" fill="#004cad"/><path d="M105.21032,209.03942v-76.67187h19.40625c6.69792,0 11.90625,0.83854 15.625,2.51563c3.71875,1.66666 6.33334,4.28646 7.84375,7.85938c1.52084,3.5625 2.28125,8.18229 2.28125,13.85938v27.82813c0,5.73959 -0.76041,10.42709 -2.28125,14.0625c-1.51041,3.625 -4.10937,6.29166 -7.79687,8c-3.6875,1.69791 -8.84896,2.54688 -15.48437,2.54688zM122.16344,197.30504h2.64063c2.59375,0 4.45833,-0.38021 5.59375,-1.14062c1.13541,-0.76041 1.84375,-1.89584 2.125,-3.40625c0.28125,-1.51041 0.42188,-3.40104 0.42188,-5.67187v-33.42187c0,-2.27084 -0.17187,-4.09896 -0.51562,-5.48437c-0.34375,-1.39584 -1.08334,-2.40625 -2.21875,-3.03125c-1.13541,-0.63541 -2.96875,-0.95312 -5.5,-0.95312h-2.54687z" fill="#0096ff"/><path d="M379.80792,209.03942v-76.67187h21.10938c5.17708,0 9.65625,0.56771 13.4375,1.70313c3.79167,1.13541 6.74479,3.17188 8.85938,6.10938c2.11458,2.9375 3.17188,7.08334 3.17188,12.4375c0,3.15625 -0.25521,5.96875 -0.76562,8.4375c-0.5,2.45834 -1.42708,4.58854 -2.78125,6.39063c-1.35417,1.79166 -3.29687,3.28646 -5.82812,4.48438l10.51563,37.10938h-17.51562l-8.42187,-34.35937h-4.82812v34.35938zM396.76107,164.93004h4.73438c2.39583,0 4.25521,-0.42709 5.57813,-1.28125c1.32292,-0.85416 2.25,-2.08334 2.78125,-3.6875c0.54167,-1.61459 0.8125,-3.55729 0.8125,-5.82812c0,-3.28125 -0.59896,-5.83334 -1.79687,-7.65625c-1.19792,-1.83334 -3.40625,-2.75 -6.625,-2.75h-5.48437z" fill="#0096ff"/><path d="M229.3992,209.03942v-76.67187h25.75c4.60417,0 8.39063,0.86979 11.35938,2.60938c2.96875,1.72916 5.17708,4.25 6.625,7.5625c1.45833,3.3125 2.1875,7.33854 2.1875,12.07813c0,5.92709 -0.97917,10.45313 -2.9375,13.57813c-1.95833,3.125 -4.60937,5.28646 -7.95312,6.48438c-3.34375,1.19791 -7.09896,1.79688 -11.26562,1.79688h-6.8125v32.5625zM246.35233,164.64879h5.67188c2.08334,0 3.66146,-0.38021 4.73438,-1.14062c1.07292,-0.76041 1.78125,-1.89584 2.125,-3.40625c0.35417,-1.51041 0.53125,-3.4375 0.53125,-5.78125c0,-1.94791 -0.14583,-3.66146 -0.4375,-5.14062c-0.28125,-1.48959 -0.95833,-2.67709 -2.03125,-3.5625c-1.07292,-0.88541 -2.74479,-1.32812 -5.01563,-1.32812h-5.57812z" fill="#0096ff"/><path d="M283.44792,132.36754h25.74997c4.60417,0 8.39063,0.86979 11.35938,2.60938c2.96875,1.72916 5.17708,4.25 6.625,7.5625c1.45833,3.3125 2.1875,7.33854 2.1875,12.07813c0,5.92709 -0.97917,10.45313 -2.9375,13.57813c-1.95833,3.125 -4.60937,5.28646 -7.95312,6.48438c-3.34375,1.19791 -7.09896,1.79688 -11.26562,1.79688h-6.8125v32.5625h-16.9531zM300.40101,164.64879h5.67188c2.08333,0 3.66146,-0.38021 4.73438,-1.14062c1.07292,-0.76041 1.78125,-1.89584 2.125,-3.40625c0.35417,-1.51041 0.53125,-3.4375 0.53125,-5.78125c0,-1.94791 -0.14583,-3.66146 -0.4375,-5.14062c-0.28125,-1.48959 -0.95833,-2.67709 -2.03125,-3.5625c-1.07292,-0.88541 -2.74479,-1.32812 -5.01562,-1.32812h-5.57812z" fill="#0096ff"/><path d="M50.64674,209.23942l14.875,-41.26562c0,0 -5.09291,-22.1327 -15.20312,-42.80625c-1.82565,-3.73311 -3.95566,-6.71394 -3.95566,-6.71394c0,0 4.93812,2.23826 9.83913,6.11906c5.35077,4.23694 5.53408,3.80138 11.51653,11.59488c2.70455,3.52329 8.02187,17.13438 8.02187,17.13438l6.8125,-20.73437h14.10938l-13.45312,39.84375l14.96875,36.82813h-15.90625l-9.375,-22.90625l-8.23437,22.90625z" fill="#0096ff"/><path d="M337.49659,209.03942v-76.67187h34.46875v11.54688h-17.51562v19.03125h13.34375v11.73438h-13.34375v22.90625h17.70313v11.45313z" fill="#0096ff"/><path d="M156.99965,209.03942v-10.21875l18.73438,-55h-17.89062v-11.45312h34.54688v9.5625l-19.01562,55.65625h19.20313v11.45313z" fill="#0096ff"/><path d="M201.01705,209.03942v-76.67187h16.9375v76.67188z" fill="#0096ff"/><path d="M429.61121,234.05397c0.86311,1.76491 3.21092,2.9214 5.12221,4.0964c2.13145,1.31034 3.79499,2.54061 3.79499,2.54061c0,0 -4.73078,-1.4017 -8.88482,-3.03907c-2.61603,-1.03114 -4.93371,-2.22537 -5.91584,-3.00306c-5.35077,-4.23694 -5.53408,-3.80137 -11.51653,-11.59488c-1.48842,-1.93901 -3.95569,-6.87084 -5.70497,-10.9703c-0.7362,-1.72528 -1.05059,-2.95104 -1.50034,-4.06486c1.35492,0.03304 2.76876,-0.07342 4.1076,-0.08956c3.3786,-0.04073 6.65621,-0.07126 10.07619,0.00841c2.4991,7.64975 5.97509,17.02415 10.42153,26.11631z" data-paper-data="{&quot;index&quot;:null}" fill="#004cad"/><path d="M434.68139,234.05397c1.82565,3.73311 3.95566,6.71393 3.95566,6.71393c0,0 -4.93812,-2.23825 -9.83913,-6.11905c-5.35077,-4.23694 -5.53408,-3.80137 -11.51653,-11.59488c-1.88912,-2.46101 -5.0061,-9.51582 -6.72297,-13.66701c-0.14711,-0.35571 -0.27692,-0.6901 -0.3972,-0.99846c-0.06628,-0.16991 -0.11212,-0.33191 -0.17392,-0.48522c0.01408,0.0004 4.79103,-1.07547 9.44275,-1.08397c3.16855,-0.00579 6.13469,1.04029 8.0622,1.08241c2.50174,7.67031 2.72081,17.01532 7.18914,26.15225z" data-paper-data="{&quot;index&quot;:null}" fill="#0096ff"/></g></g></svg>
