<svg version="1.1" xmlns="http://www.w3.org/2000/svg" xmlns:xlink="http://www.w3.org/1999/xlink" width="91.001" height="54.672" viewBox="0,0,91.001,54.672"><g transform="translate(-194.4995,-152.664)"><g data-paper-data="{&quot;isPaintingLayer&quot;:true}" fill-rule="nonzero" stroke="none" stroke-width="1" stroke-linejoin="miter" stroke-miterlimit="10" stroke-dasharray="" stroke-dashoffset="0" style="mix-blend-mode: normal"><path d="M285.5005,198.731c0,4.752 -3.854,8.605 -8.605,8.605h-73.792c-4.752,0 -8.604,-3.854 -8.604,-8.605v-37.463c0,-4.752 3.852,-8.604 8.604,-8.604h73.791c4.754,0 8.605,3.852 8.605,8.604v37.463z" fill="#0096ff" stroke-linecap="butt"/><path d="M223.26689,182.44123l0.44892,-24.13457h3.3063l4.26114,19.57416l4.28964,-19.57416h3.2778l0.44179,24.13457h-2.70775l-0.27077,-17.28386l-4.07587,17.28386h-1.90968l-4.28548,-17.51485l-0.03266,17.51485zM246.59567,182.44123v-8.52228l-5.21598,-15.6123h3.12816l3.69821,11.65044l3.63408,-11.65044h3.15666l-5.18747,15.6123v8.52228z" fill="#5abaff" stroke-linecap="square"/><path d="M198.9413,202.95861v-18.33659h4.55302c1.10081,0 1.97965,0.20031 2.63653,0.60094c0.65688,0.40062 1.1351,0.97809 1.43466,1.73241c0.30317,0.75432 0.45476,1.66746 0.45476,2.73939c0,0.96727 -0.16963,1.80641 -0.5089,2.51743c-0.33927,0.70741 -0.84094,1.2542 -1.50504,1.64039c-0.6641,0.38258 -1.49421,0.57386 -2.49036,0.57386h-2.01394v8.53217h-2.56074zM201.50203,192.59115h1.1748c0.73989,0 1.32097,-0.08301 1.74325,-0.24904c0.42228,-0.16602 0.72365,-0.45657 0.90411,-0.87162c0.18407,-0.41506 0.27611,-0.99975 0.27611,-1.75408c0,-0.87343 -0.06497,-1.54474 -0.1949,-2.01394c-0.12632,-0.4692 -0.39341,-0.79403 -0.80124,-0.97449c-0.40784,-0.18046 -1.04306,-0.27068 -1.90566,-0.27068h-1.19645v6.13385zM209.80617,202.95861v-18.33659h3.69222c1.22352,0 2.2341,0.16241 3.03174,0.48724c0.80124,0.32483 1.39315,0.84636 1.77573,1.56459c0.38618,0.71462 0.57928,1.65302 0.57928,2.81518c0,0.71101 -0.07579,1.35706 -0.22738,1.93815c-0.15159,0.58108 -0.39341,1.07194 -0.72545,1.47256c-0.33205,0.39701 -0.76876,0.68756 -1.31014,0.87163l2.60404,9.18725h-2.4687l-2.39832,-8.60255h-1.99228v8.60255h-2.56074zM212.36691,192.52619h0.97449c0.72184,0 1.30834,-0.09023 1.75949,-0.27069c0.45476,-0.18407 0.78681,-0.49446 0.99614,-0.93118c0.21294,-0.43672 0.31942,-1.04848 0.31942,-1.83528c0,-1.07194 -0.1967,-1.84431 -0.5901,-2.31711c-0.38979,-0.47641 -1.16577,-0.71462 -2.32794,-0.71462h-1.13149v6.06888zM226.17427,203.16434c-1.23796,0 -2.22688,-0.24182 -2.96677,-0.72545c-0.73989,-0.48363 -1.26864,-1.17299 -1.58625,-2.06808c-0.314,-0.89869 -0.471,-1.95258 -0.471,-3.16167v-6.95134c0,-1.20548 0.16061,-2.24132 0.48183,-3.10753c0.32483,-0.86982 0.85358,-1.53391 1.58625,-1.99228c0.73267,-0.46198 1.71798,-0.69297 2.95594,-0.69297c1.23796,0 2.21786,0.2346 2.9397,0.7038c0.72545,0.46559 1.25059,1.12968 1.57542,1.99228c0.32483,0.85899 0.48724,1.89123 0.48724,3.0967v6.97299c0,1.19465 -0.16241,2.23771 -0.48724,3.12919c-0.32483,0.88787 -0.84997,1.57722 -1.57542,2.06808c-0.72184,0.49085 -1.70174,0.73628 -2.9397,0.73628zM226.17427,201.1504c0.67853,0 1.19104,-0.13895 1.53752,-0.41686c0.34648,-0.28152 0.57928,-0.67492 0.69838,-1.18021c0.12271,-0.50529 0.18407,-1.0972 0.18407,-1.77573v-8.03951c0,-0.67853 -0.06136,-1.26322 -0.18407,-1.75408c-0.1191,-0.49085 -0.3519,-0.86802 -0.69838,-1.13149c-0.34648,-0.26347 -0.85899,-0.3952 -1.53752,-0.3952c-0.67853,0 -1.19645,0.13173 -1.55377,0.3952c-0.3537,0.26347 -0.59191,0.64064 -0.71462,1.13149c-0.1191,0.49085 -0.17865,1.07555 -0.17865,1.75408v8.03952c0,0.67853 0.05955,1.27044 0.17866,1.77573c0.12271,0.50529 0.36092,0.89869 0.71462,1.18021c0.35731,0.27791 0.87523,0.41687 1.55377,0.41687zM232.35152,203.3863v-1.82987c0.55943,0 1.01239,-0.03789 1.35887,-0.11369c0.34648,-0.07579 0.61356,-0.21114 0.80124,-0.40603c0.19129,-0.19851 0.32483,-0.48183 0.40062,-0.84997c0.07579,-0.37175 0.11369,-0.84275 0.11369,-1.413v-14.15171h2.53367v14.19502c0,1.0575 -0.11369,1.92191 -0.34107,2.59322c-0.22738,0.67131 -0.628,1.16938 -1.20187,1.49421c-0.57025,0.32122 -1.38413,0.48183 -2.44163,0.48183zM240.43153,202.95861v-18.33659h7.10834v1.90566h-4.54761v6.06347h3.68681v1.81363h-3.68681v6.71855h4.59633v1.83529zM254.24037,203.16434c-1.29571,0 -2.30268,-0.27069 -3.02091,-0.81207c-0.71823,-0.54499 -1.21631,-1.27766 -1.49421,-2.19801c-0.27791,-0.92035 -0.41686,-1.94717 -0.41686,-3.08046v-6.47492c0,-1.23796 0.13895,-2.31711 0.41686,-3.23746c0.27791,-0.92035 0.77598,-1.63316 1.49421,-2.13845c0.71823,-0.50529 1.7252,-0.75793 3.02091,-0.75793c1.14773,0 2.05725,0.21114 2.72856,0.63342c0.67131,0.42228 1.15314,1.02682 1.44549,1.81362c0.29596,0.7832 0.44393,1.7252 0.44393,2.82601v1.4509h-2.41997v-1.28849c0,-0.68214 -0.03429,-1.28307 -0.10286,-1.8028c-0.06858,-0.51973 -0.25445,-0.92215 -0.55762,-1.20728c-0.29956,-0.28873 -0.80486,-0.4331 -1.51587,-0.4331c-0.72184,0 -1.24879,0.15519 -1.58083,0.46558c-0.33205,0.30678 -0.5486,0.7435 -0.64966,1.31014c-0.09745,0.56665 -0.14617,1.22713 -0.14617,1.98146v7.26534c0,0.92035 0.07579,1.64941 0.22738,2.18718c0.15159,0.53416 0.40062,0.91494 0.74711,1.14232c0.34648,0.22738 0.81388,0.34107 1.40218,0.34107c0.69658,0 1.19465,-0.1552 1.49421,-0.46559c0.30317,-0.31039 0.49266,-0.73628 0.56845,-1.27766c0.07579,-0.54499 0.11369,-1.18021 0.11369,-1.90566v-1.35345h2.41997v1.35345c0,1.11886 -0.13534,2.10417 -0.40603,2.95594c-0.27069,0.85177 -0.73808,1.51587 -1.40218,1.99228c-0.6641,0.47642 -1.60068,0.71462 -2.80977,0.71462zM263.3205,202.95861v-16.43092h-3.10211v-1.90566h8.66752v1.90566h-3.01008v16.43092zM274.97511,203.16434c-1.0575,0 -1.93815,-0.22558 -2.64194,-0.67673c-0.70019,-0.45476 -1.23074,-1.08096 -1.59166,-1.87859c-0.36092,-0.80124 -0.57206,-1.73062 -0.63341,-2.78811l2.26297,-0.61176c0.04692,0.64966 0.14978,1.27586 0.30859,1.8786c0.1588,0.60274 0.41867,1.0972 0.77959,1.48339c0.36092,0.38618 0.86621,0.57928 1.51587,0.57928c0.6641,0 1.16577,-0.18407 1.50504,-0.55221c0.33927,-0.37175 0.5089,-0.90591 0.5089,-1.60249c0,-0.83012 -0.18948,-1.49782 -0.56845,-2.00311c-0.37536,-0.50529 -0.84997,-1.01419 -1.42383,-1.5267l-3.07505,-2.71774c-0.60635,-0.52694 -1.05389,-1.10261 -1.34263,-1.72701c-0.28513,-0.628 -0.42769,-1.40218 -0.42769,-2.32253c0,-1.34263 0.38438,-2.38388 1.15314,-3.12377c0.77237,-0.73989 1.82265,-1.10983 3.15084,-1.10983c0.72184,0 1.35887,0.09564 1.91108,0.28693c0.55221,0.18768 1.01239,0.47822 1.38052,0.87163c0.37175,0.38979 0.6659,0.88245 0.88245,1.47797c0.22016,0.59552 0.36814,1.2939 0.44393,2.09515l-2.17635,0.59011c-0.04331,-0.60635 -0.13354,-1.16217 -0.27069,-1.66746c-0.13354,-0.50529 -0.37175,-0.91133 -0.71462,-1.21811c-0.33927,-0.31039 -0.82471,-0.46558 -1.45631,-0.46558c-0.63522,0 -1.12968,0.16963 -1.48339,0.50889c-0.3537,0.33927 -0.53055,0.84094 -0.53055,1.50504c0,0.55943 0.09384,1.0196 0.28152,1.38052c0.18768,0.36092 0.49266,0.73087 0.91494,1.10983l3.10212,2.71774c0.69297,0.60274 1.30293,1.32278 1.82987,2.16011c0.53055,0.83734 0.79583,1.82987 0.79583,2.9776c0,0.90591 -0.18948,1.68731 -0.56845,2.34418c-0.37536,0.65327 -0.89148,1.15495 -1.54835,1.50504c-0.65688,0.34648 -1.41481,0.51973 -2.2738,0.51973z" fill="#5abaff" stroke-linecap="square"/><path d="M224.45986,181.24826l0.44892,-24.13457h3.3063l4.26114,19.57416l4.28964,-19.57416h3.2778l0.44179,24.13457h-2.70775l-0.27077,-17.28386l-4.07587,17.28386h-1.90968l-4.28548,-17.51485l-0.03266,17.51485zM247.78864,181.24826v-8.52228l-5.21598,-15.6123h3.12816l3.69821,11.65044l3.63408,-11.65044h3.15666l-5.18747,15.6123v8.52228z" fill="#ffffff" stroke-linecap="square"/><path d="M200.13426,201.76564v-18.33659h4.55302c1.10081,0 1.97965,0.20031 2.63653,0.60094c0.65688,0.40062 1.1351,0.97809 1.43466,1.73241c0.30317,0.75432 0.45476,1.66746 0.45476,2.73939c0,0.96727 -0.16963,1.80641 -0.5089,2.51743c-0.33927,0.70741 -0.84094,1.2542 -1.50504,1.64039c-0.6641,0.38258 -1.49421,0.57386 -2.49036,0.57386h-2.01394v8.53217h-2.56074zM202.695,191.39819h1.1748c0.73989,0 1.32097,-0.08301 1.74325,-0.24904c0.42228,-0.16602 0.72365,-0.45657 0.90411,-0.87162c0.18407,-0.41506 0.27611,-0.99975 0.27611,-1.75408c0,-0.87343 -0.06497,-1.54474 -0.1949,-2.01394c-0.12632,-0.4692 -0.39341,-0.79403 -0.80124,-0.97449c-0.40784,-0.18046 -1.04306,-0.27068 -1.90566,-0.27068h-1.19645v6.13385zM210.99914,201.76564v-18.33659h3.69222c1.22352,0 2.2341,0.16241 3.03174,0.48724c0.80124,0.32483 1.39315,0.84636 1.77573,1.56459c0.38618,0.71462 0.57928,1.65302 0.57928,2.81518c0,0.71101 -0.07579,1.35706 -0.22738,1.93815c-0.15159,0.58108 -0.39341,1.07194 -0.72545,1.47256c-0.33205,0.39701 -0.76876,0.68756 -1.31014,0.87163l2.60404,9.18725h-2.4687l-2.39832,-8.60255h-1.99228v8.60255h-2.56074zM213.55988,191.33322h0.97449c0.72184,0 1.30834,-0.09023 1.75949,-0.27069c0.45476,-0.18407 0.78681,-0.49446 0.99614,-0.93118c0.21294,-0.43672 0.31942,-1.04848 0.31942,-1.83528c0,-1.07194 -0.1967,-1.84431 -0.5901,-2.31711c-0.38979,-0.47641 -1.16577,-0.71462 -2.32794,-0.71462h-1.13149v6.06888zM227.36724,201.97137c-1.23796,0 -2.22688,-0.24182 -2.96677,-0.72545c-0.73989,-0.48363 -1.26864,-1.17299 -1.58625,-2.06808c-0.314,-0.89869 -0.471,-1.95258 -0.471,-3.16167v-6.95134c0,-1.20548 0.16061,-2.24132 0.48183,-3.10753c0.32483,-0.86982 0.85358,-1.53391 1.58625,-1.99228c0.73267,-0.46198 1.71798,-0.69297 2.95594,-0.69297c1.23796,0 2.21786,0.2346 2.9397,0.7038c0.72545,0.46559 1.25059,1.12968 1.57542,1.99228c0.32483,0.85899 0.48724,1.89123 0.48724,3.0967v6.97299c0,1.19465 -0.16241,2.23771 -0.48724,3.12919c-0.32483,0.88787 -0.84997,1.57722 -1.57542,2.06808c-0.72184,0.49085 -1.70174,0.73628 -2.9397,0.73628zM227.36724,199.95743c0.67853,0 1.19104,-0.13895 1.53752,-0.41686c0.34648,-0.28152 0.57928,-0.67492 0.69838,-1.18021c0.12271,-0.50529 0.18407,-1.0972 0.18407,-1.77573v-8.03951c0,-0.67853 -0.06136,-1.26322 -0.18407,-1.75408c-0.1191,-0.49085 -0.3519,-0.86802 -0.69838,-1.13149c-0.34648,-0.26347 -0.85899,-0.3952 -1.53752,-0.3952c-0.67853,0 -1.19645,0.13173 -1.55377,0.3952c-0.3537,0.26347 -0.59191,0.64064 -0.71462,1.13149c-0.1191,0.49085 -0.17865,1.07555 -0.17865,1.75408v8.03952c0,0.67853 0.05955,1.27044 0.17866,1.77573c0.12271,0.50529 0.36092,0.89869 0.71462,1.18021c0.35731,0.27791 0.87523,0.41687 1.55377,0.41687zM233.54449,202.19333v-1.82987c0.55943,0 1.01239,-0.03789 1.35887,-0.11369c0.34648,-0.07579 0.61356,-0.21114 0.80124,-0.40603c0.19129,-0.19851 0.32483,-0.48183 0.40062,-0.84997c0.07579,-0.37175 0.11369,-0.84275 0.11369,-1.413v-14.15171h2.53367v14.19502c0,1.0575 -0.11369,1.92191 -0.34107,2.59322c-0.22738,0.67131 -0.628,1.16938 -1.20187,1.49421c-0.57025,0.32122 -1.38413,0.48183 -2.44163,0.48183zM241.6245,201.76564v-18.33659h7.10834v1.90566h-4.54761v6.06347h3.68681v1.81363h-3.68681v6.71855h4.59633v1.83529zM255.43333,201.97137c-1.29571,0 -2.30268,-0.27069 -3.02091,-0.81207c-0.71823,-0.54499 -1.21631,-1.27766 -1.49421,-2.19801c-0.27791,-0.92035 -0.41686,-1.94717 -0.41686,-3.08046v-6.47492c0,-1.23796 0.13895,-2.31711 0.41686,-3.23746c0.27791,-0.92035 0.77598,-1.63316 1.49421,-2.13845c0.71823,-0.50529 1.7252,-0.75793 3.02091,-0.75793c1.14773,0 2.05725,0.21114 2.72856,0.63342c0.67131,0.42228 1.15314,1.02682 1.44549,1.81362c0.29596,0.7832 0.44393,1.7252 0.44393,2.82601v1.4509h-2.41997v-1.28849c0,-0.68214 -0.03429,-1.28307 -0.10286,-1.8028c-0.06858,-0.51973 -0.25445,-0.92215 -0.55762,-1.20728c-0.29956,-0.28873 -0.80486,-0.4331 -1.51587,-0.4331c-0.72184,0 -1.24879,0.15519 -1.58083,0.46558c-0.33205,0.30678 -0.5486,0.7435 -0.64966,1.31014c-0.09745,0.56665 -0.14617,1.22713 -0.14617,1.98146v7.26534c0,0.92035 0.07579,1.64941 0.22738,2.18718c0.15159,0.53416 0.40062,0.91494 0.74711,1.14232c0.34648,0.22738 0.81388,0.34107 1.40218,0.34107c0.69658,0 1.19465,-0.1552 1.49421,-0.46559c0.30317,-0.31039 0.49266,-0.73628 0.56845,-1.27766c0.07579,-0.54499 0.11369,-1.18021 0.11369,-1.90566v-1.35345h2.41997v1.35345c0,1.11886 -0.13534,2.10417 -0.40603,2.95594c-0.27069,0.85177 -0.73808,1.51587 -1.40218,1.99228c-0.6641,0.47642 -1.60068,0.71462 -2.80977,0.71462zM264.51347,201.76564v-16.43092h-3.10211v-1.90566h8.66752v1.90566h-3.01008v16.43092zM276.16808,201.97137c-1.0575,0 -1.93815,-0.22558 -2.64194,-0.67673c-0.70019,-0.45476 -1.23074,-1.08096 -1.59166,-1.87859c-0.36092,-0.80124 -0.57206,-1.73062 -0.63341,-2.78811l2.26297,-0.61176c0.04692,0.64966 0.14978,1.27586 0.30859,1.8786c0.1588,0.60274 0.41867,1.0972 0.77959,1.48339c0.36092,0.38618 0.86621,0.57928 1.51587,0.57928c0.6641,0 1.16577,-0.18407 1.50504,-0.55221c0.33927,-0.37175 0.5089,-0.90591 0.5089,-1.60249c0,-0.83012 -0.18948,-1.49782 -0.56845,-2.00311c-0.37536,-0.50529 -0.84997,-1.01419 -1.42383,-1.5267l-3.07505,-2.71774c-0.60635,-0.52694 -1.05389,-1.10261 -1.34263,-1.72701c-0.28513,-0.628 -0.42769,-1.40218 -0.42769,-2.32253c0,-1.34263 0.38438,-2.38388 1.15314,-3.12377c0.77237,-0.73989 1.82265,-1.10983 3.15084,-1.10983c0.72184,0 1.35887,0.09564 1.91108,0.28693c0.55221,0.18768 1.01239,0.47822 1.38052,0.87163c0.37175,0.38979 0.6659,0.88245 0.88245,1.47797c0.22016,0.59552 0.36814,1.2939 0.44393,2.09515l-2.17635,0.59011c-0.04331,-0.60635 -0.13354,-1.16217 -0.27069,-1.66746c-0.13354,-0.50529 -0.37175,-0.91133 -0.71462,-1.21811c-0.33927,-0.31039 -0.82471,-0.46558 -1.45631,-0.46558c-0.63522,0 -1.12968,0.16963 -1.48339,0.50889c-0.3537,0.33927 -0.53055,0.84094 -0.53055,1.50504c0,0.55943 0.09384,1.0196 0.28152,1.38052c0.18768,0.36092 0.49266,0.73087 0.91494,1.10983l3.10212,2.71774c0.69297,0.60274 1.30293,1.32278 1.82987,2.16011c0.53055,0.83734 0.79583,1.82987 0.79583,2.9776c0,0.90591 -0.18948,1.68731 -0.56845,2.34418c-0.37536,0.65327 -0.89148,1.15495 -1.54835,1.50504c-0.65688,0.34648 -1.41481,0.51973 -2.2738,0.51973z" fill="#ffffff" stroke-linecap="square"/></g></g></svg>
